<svg xmlns="http://www.w3.org/2000/svg" xmlns:xlink="http://www.w3.org/1999/xlink" version="1.1" x="0px" y="0px" viewBox="0 0 100 100" enable-background="new 0 0 100 100" xml:space="preserve"><path fill="#000000" d="M23.257,17.583H10v7h8.23l13.886,41.183h46.038l11.294-31.947H28.731L23.257,17.583z M35.147,52.847h8.023l0.459,5.919  h-6.487L35.147,52.847z M60.321,52.847l-0.472,5.919H50.65l-0.459-5.919H60.321z M49.648,45.847l-0.39-5.028H61.28l-0.401,5.028  H49.648z M66.872,58.766l0.472-5.919h7.953l-2.092,5.919H66.872z M77.771,45.847h-9.87l0.401-5.028h11.247L77.771,45.847z   M42.237,40.819l0.39,5.028h-9.84l-1.696-5.028H42.237z"></path><circle fill="#000000" cx="41.656" cy="76.669" r="6.954"></circle><circle fill="#000000" cx="67.656" cy="76.669" r="6.954"></circle></svg>