<svg xmlns="http://www.w3.org/2000/svg" xmlns:xlink="http://www.w3.org/1999/xlink" version="1.1" x="0px" y="0px" viewBox="0 0 100 100" enable-background="new 0 0 100 100" xml:space="preserve"><circle cx="45.311" cy="83.497" fill="#ffffff" r="6.082"></circle><circle cx="71.708" cy="83.497" fill="#ffffff" r="6.082"></circle><path d="M90.443,21.129c-2.938-2.939-6.85-4.56-11.012-4.56c-4.164,0-8.076,1.62-11.018,4.56c-6.071,6.074-6.071,15.957,0,22.029  c2.941,2.94,6.854,4.559,11.016,4.559s8.074-1.618,11.014-4.559C96.518,37.087,96.518,27.204,90.443,21.129z M87.628,40.341  c-2.188,2.188-5.101,3.393-8.198,3.393c-3.097,0-6.01-1.205-8.197-3.393c-4.52-4.519-4.52-11.874,0-16.395  c2.188-2.188,5.102-3.393,8.199-3.393s6.01,1.205,8.196,3.392C92.146,28.467,92.148,35.822,87.628,40.341z"  fill="#ffffff"></path><path d="M86.275,30.153H72.582c-1.1,0-1.992,0.892-1.992,1.992s0.893,1.992,1.992,1.992h13.693c1.1,0,1.992-0.893,1.992-1.992  C88.268,31.045,87.375,30.153,86.275,30.153z"  fill="#ffffff"></path><path d="M79.742,51.18c-0.002,0.002-0.002,0.004-0.002,0.006l-2.521,8.903H66.415l1.249-13.248h2.844  c-0.938-0.571-1.828-1.229-2.656-1.979l0.002-0.016c-0.194-0.18-0.4-0.347-0.59-0.536c-0.255-0.256-0.496-0.521-0.73-0.788  c-0.143-0.163-0.278-0.328-0.413-0.494c-0.706-0.865-1.324-1.779-1.838-2.735l-0.241,2.564H49.912l-1.251-13.248h13.774  c0.201-1.357,0.547-2.697,1.072-3.984h-36.54L23.75,14.277c-0.62-2.191-2.808-3.846-5.085-3.848L6.993,10.421H6.991  c-1.099,0-1.99,0.892-1.991,1.991c0,1.101,0.891,1.992,1.991,1.993l11.673,0.008c0.479,0,1.122,0.488,1.255,0.949l15.743,55.554  c0.396,1.396,1.733,2.409,3.185,2.409h39.125c1.102,0,1.992-0.892,1.992-1.992s-0.892-1.992-1.992-1.992H39.356l-1.492-5.268h39.863  c1.451,0,2.791-1.015,3.184-2.408l3.718-13.119c-1.399,0.44-2.86,0.689-4.356,0.762L79.742,51.18z M28.099,29.608h16.56  l1.253,13.248H31.854L28.099,29.608z M36.736,60.089l-3.753-13.248h13.303l1.253,13.248H36.736z M62.413,60.089H51.541L50.29,46.841  h13.374L62.413,60.089z" fill="#ffffff"></path></svg>