<svg xmlns="http://www.w3.org/2000/svg" xmlns:xlink="http://www.w3.org/1999/xlink" version="1.1" x="0px" y="0px" viewBox="0 0 100 100" enable-background="new 0 0 100 100" xml:space="preserve"><path d="M94.346,25.5c-0.627-0.831-1.625-1.308-2.74-1.308H28.009L24.484,11.76c-0.601-2.117-2.712-3.714-4.912-3.716L6.926,8.034  H6.924C5.862,8.034,5.001,8.896,5,9.957c-0.001,1.063,0.86,1.926,1.923,1.927l12.646,0.009c0.463,0,1.086,0.472,1.212,0.917  l16.826,59.363c0.381,1.349,1.675,2.326,3.076,2.326L82.357,74.5c1.063,0,1.925-0.861,1.925-1.925s-0.861-1.925-1.925-1.925  l-41.183-0.002l-1.695-5.982h42.713c1.402,0,2.695-0.979,3.076-2.325l9.588-33.848C95.161,27.422,94.975,26.332,94.346,25.5z   M29.101,28.041h18.028l1.367,14.464H33.2L29.101,28.041z M38.389,60.818l-4.098-14.464h14.568l1.367,14.464H38.389z M65.997,60.818  H54.093l-1.366-14.464h14.635L65.997,60.818z M67.727,42.505H52.361l-1.365-14.464h18.095L67.727,42.505z M84.421,51.208  c-0.001,0.004-0.001,0.007-0.002,0.011l-2.718,9.598H69.863l1.365-14.463h14.567L84.421,51.208z M86.889,42.505H71.592l1.365-14.464  h18.027L86.889,42.505z" fill="#ffffff"></path><circle cx="47.31" cy="85.502" fill="#ffffff" r="6.463"></circle><circle cx="75.701" cy="85.502" fill="#ffffff" r="6.463"></circle></svg>